<svg width="282" height="71" viewBox="0 0 282 71" fill="none" xmlns="http://www.w3.org/2000/svg">
<path d="M34.2665 68.0573C46.3539 68.0573 56.1526 58.2917 56.1526 46.2453C56.1526 34.1988 46.3539 24.4333 34.2665 24.4333C22.1791 24.4333 12.3804 34.1988 12.3804 46.2453C12.3804 58.2917 22.1791 68.0573 34.2665 68.0573Z" fill="#21E162"/>
<path d="M37.4852 22.3769C41.8536 22.3769 45.395 18.8476 45.395 14.4939C45.395 10.1403 41.8536 6.61096 37.4852 6.61096C33.1168 6.61096 29.5754 10.1403 29.5754 14.4939C29.5754 18.8476 33.1168 22.3769 37.4852 22.3769Z" fill="#945EF1"/>
<path d="M70.4998 64.1909C77.5273 64.1909 83.2242 58.5133 83.2242 51.5096C83.2242 44.5059 77.5273 38.8283 70.4998 38.8283C63.4723 38.8283 57.7754 44.5059 57.7754 51.5096C57.7754 58.5133 63.4723 64.1909 70.4998 64.1909Z" fill="#FA4455"/>
<path d="M65.4346 36.2723C74.9827 36.2723 82.723 28.5582 82.723 19.0424C82.723 9.52667 74.9827 1.81262 65.4346 1.81262C55.8865 1.81262 48.1462 9.52667 48.1462 19.0424C48.1462 28.5582 55.8865 36.2723 65.4346 36.2723Z" fill="#34AAFE"/>
<path d="M130.634 60.0857H141.982L120.954 3.06085H112.705L91.6775 60.0857H103.074L107.079 49.2034H126.629L130.634 60.0857L110.226 40.6022L116.854 22.6869L123.482 40.6022H110.226L130.634 60.0857Z" fill="#171923"/>
<path d="M170.115 21.1187L159.672 49.441L149.23 21.1187H138.549L152.901 60.0857H166.395L180.748 21.1187H170.115Z" fill="#171923"/>
<path d="M185.278 21.1187H195.958V60.0857H185.278V21.1187Z" fill="#171923"/>
<path d="M190.618 16.6992C194.41 16.6992 197.484 13.6355 197.484 9.85622C197.484 6.07695 194.41 3.01324 190.618 3.01324C186.826 3.01324 183.752 6.07695 183.752 9.85622C183.752 13.6355 186.826 16.6992 190.618 16.6992Z" fill="#171923"/>
<path d="M226.702 29.7198V21.1186H216.674V9.69342H205.993V21.1186H198.929V29.7198H205.993V46.4946C205.993 55.1434 210.332 60.8934 221.395 60.8934C225.686 60.8934 229.405 59.3252 229.405 59.3252L228.118 50.914C228.118 50.914 226.02 51.5318 223.445 51.5318C220.298 51.5318 216.626 50.1537 216.626 45.8293V29.7198H226.702Z" fill="#171923"/>
<path d="M248.596 51.1518C242.636 51.1518 237.82 46.4472 237.82 40.6497C237.82 34.8522 242.636 30.1477 248.596 30.1477C254.556 30.1477 259.372 34.8522 259.372 40.6497C259.372 46.4472 254.556 51.1518 248.596 51.1518ZM248.596 20.1208C237.057 20.1208 227.663 29.2448 227.663 40.5072C227.663 51.7696 237.057 60.8935 248.596 60.8935C260.135 60.8935 269.528 51.7696 269.528 40.5072C269.528 29.2448 260.135 20.1208 248.596 20.1208Z" fill="#171923"/>
</svg>
