<svg width="253" height="183" viewBox="0 0 253 183" fill="none" xmlns="http://www.w3.org/2000/svg">
<path d="M154.298 38.7827C119.995 -13.3569 46.5883 16.1432 47.9604 70.3409C-15.1559 86.8062 -4.86516 182.853 54.8209 182.853H203.693C262.693 182.853 277.1 74.457 200.263 67.5966C207.124 50.4454 162.907 55.4571 154.298 38.7827Z" fill="#805AD5"/>
<path d="M150.182 27.8059C115.879 -24.3337 42.4721 5.16635 43.8442 59.3641C-19.2721 75.8294 -8.98137 171.876 50.7047 171.876H199.577C258.577 171.876 272.984 63.4802 196.147 56.6198C203.007 39.4686 173.507 14.0848 150.182 27.8059Z" fill="white" stroke="#F1F1F1" stroke-width="0.975462"/>
<path d="M103.811 143.945C119.648 143.945 132.486 131.15 132.486 115.367C132.486 99.5831 119.648 86.7881 103.811 86.7881C87.9735 86.7881 75.135 99.5831 75.135 115.367C75.135 131.15 87.9735 143.945 103.811 143.945Z" fill="#21E162"/>
<path d="M108.028 84.0936C113.751 84.0936 118.391 79.4694 118.391 73.7652C118.391 68.061 113.751 63.4368 108.028 63.4368C102.304 63.4368 97.6643 68.061 97.6643 73.7652C97.6643 79.4694 102.304 84.0936 108.028 84.0936Z" fill="#945EF1"/>
<path d="M151.284 138.879C160.492 138.879 167.956 131.441 167.956 122.264C167.956 113.088 160.492 105.649 151.284 105.649C142.077 105.649 134.613 113.088 134.613 122.264C134.613 131.441 142.077 138.879 151.284 138.879Z" fill="#FA4455"/>
<path d="M144.648 102.3C157.158 102.3 167.299 92.1925 167.299 79.7247C167.299 67.257 157.158 57.1499 144.648 57.1499C132.138 57.1499 121.996 67.257 121.996 79.7247C121.996 92.1925 132.138 102.3 144.648 102.3Z" fill="#34AAFE"/>
</svg>
