<svg width="223" height="36" viewBox="0 0 223 36" fill="none" xmlns="http://www.w3.org/2000/svg">
<g clip-path="url(#clip0_7_9369)">
<path d="M24.9295 32.6875C24.9291 33.2074 24.7274 33.7059 24.3687 34.0736C24.01 34.4412 23.5236 34.6479 23.0162 34.6484H2.6011C2.09379 34.6484 1.60721 34.442 1.2482 34.0747C0.889184 33.7073 0.687088 33.209 0.68628 32.689V2.06504C0.686079 1.80727 0.735471 1.55199 0.831629 1.3138C0.927787 1.07562 1.06882 0.859197 1.24667 0.676927C1.42452 0.494657 1.63569 0.350112 1.8681 0.251563C2.1005 0.153014 2.34959 0.102395 2.6011 0.102601H15.703L24.9295 9.74604V32.6875Z" fill="#23A566"/>
<path d="M16.7183 9.49447L24.9294 17.538V9.68978H17.6559C17.3383 9.69346 17.0252 9.61271 16.7472 9.45541L16.7183 9.49447Z" fill="#1C8F5A"/>
<path d="M24.9296 9.7304H17.6362C17.1289 9.72999 16.6425 9.52326 16.2837 9.15562C15.925 8.78797 15.7233 8.28946 15.7229 7.76953V0.049469L24.9296 9.7304Z" fill="#8ED1B1"/>
<path fill-rule="evenodd" clip-rule="evenodd" d="M19.0921 28.2798H6.47656V17.0692H19.0921V28.2798ZM13.5687 18.6864V20.6488H17.5417V18.6895L13.5687 18.6864ZM13.5687 21.8847V23.7596H17.5417V21.8753L13.5687 21.8847ZM13.5687 24.9549V26.6908H17.5417V24.9455L13.5687 24.9549ZM12.0091 26.6814V24.9455H8.03769V26.6814H12.0091ZM12.0091 23.7393V21.8753H8.03769V23.7487L12.0091 23.7393ZM12.0091 20.6691V18.6864H8.03769V20.6488L12.0091 20.6691Z" fill="white"/>
<path d="M73.6724 20.9928C73.6724 18.1446 71.5883 16.1976 69.1684 16.1976C66.7486 16.1976 64.6627 18.1446 64.6627 20.9928C64.6627 23.812 66.7486 25.7879 69.1684 25.7879C71.5883 25.7879 73.6724 23.8084 73.6724 20.9928ZM77.18 20.9928C77.18 25.5491 73.5828 28.9075 69.1667 28.9075C64.7523 28.9075 61.155 25.5491 61.155 20.9928C61.155 16.4039 64.7523 13.078 69.1684 13.078C73.5828 13.078 77.18 16.4039 77.18 20.9928ZM90.9557 20.9928C90.9557 18.1446 88.8715 16.1976 86.4517 16.1976C84.0318 16.1976 81.9477 18.1446 81.9477 20.9928C81.9477 23.812 84.0318 25.7879 86.4517 25.7879C88.8715 25.7879 90.9557 23.8084 90.9557 20.9928ZM94.4633 20.9928C94.4633 25.5491 90.8661 28.9075 86.4517 28.9075C82.0373 28.9075 78.4383 25.5491 78.4383 20.9928C78.4383 16.4075 82.0373 13.078 86.4517 13.078C90.8661 13.078 94.4633 16.4039 94.4633 20.9928ZM107.947 21.0199C107.947 18.2333 106.07 16.1958 103.684 16.1958C101.262 16.1958 99.2362 18.2333 99.2362 21.0199C99.2362 23.7794 101.262 25.7879 103.682 25.7879C106.07 25.7879 107.947 23.7776 107.947 21.0199ZM111.03 13.5557V27.7657C111.03 33.6104 107.55 35.999 103.438 35.999C101.943 36.0241 100.475 35.595 99.2157 34.7653C97.9567 33.9356 96.9632 32.7421 96.3594 31.3341L99.4119 30.0747C99.9567 31.363 101.289 32.883 103.436 32.883C106.067 32.883 107.698 31.2726 107.698 28.2434V27.1035H107.575C106.791 28.0643 105.278 28.9039 103.369 28.9039C99.3767 28.9039 95.718 25.4568 95.718 21.0217C95.718 16.5522 99.3767 13.078 103.369 13.078C105.274 13.078 106.787 13.9158 107.576 14.8477H107.699V13.5593H111.03V13.5557ZM116.521 5.22295H113.1V28.4208H116.519L116.521 5.22295ZM121.472 20.7467L128.61 17.8098C128.218 16.82 127.035 16.1324 125.647 16.1324C123.863 16.1324 121.382 17.6922 121.472 20.7467ZM129.852 23.593L132.574 25.3917C131.825 26.4891 130.828 27.3822 129.668 27.9935C128.509 28.6049 127.222 28.9161 125.919 28.9003C121.382 28.9003 117.994 25.426 117.994 20.9855C117.994 16.279 121.412 13.0708 125.527 13.0708C129.671 13.0708 131.699 16.3387 132.363 18.1048L132.725 19.0041L122.048 23.3867C122.865 24.9755 124.137 25.7843 125.919 25.7843C127.706 25.7843 128.944 24.914 129.852 23.593ZM48.2054 18.9299V15.5715H59.6244C59.7351 16.156 59.7931 16.849 59.7931 17.5981C59.7931 20.117 59.099 23.2329 56.8584 25.4514C54.6793 27.7006 51.8957 28.9003 48.2089 28.9003C41.3729 28.9003 35.6265 23.3813 35.6265 16.6101C35.6265 9.83899 41.3729 4.32001 48.2089 4.32001C51.9906 4.32001 54.6828 5.78932 56.7073 7.70558L54.3173 10.076C52.8658 8.72615 50.8993 7.67844 48.2054 7.67844C43.2146 7.67844 39.3116 11.663 39.3116 16.6101C39.3116 21.5573 43.2146 25.5419 48.2054 25.5419C51.4423 25.5419 53.2858 24.2535 54.4667 23.0827C55.4262 22.1328 56.0553 20.7774 56.3048 18.9263L48.2054 18.9299ZM153.254 23.5478C153.254 25.3808 152.601 26.8537 151.295 27.9648C149.968 29.0577 148.36 29.6042 146.466 29.6042C144.779 29.6042 143.294 29.0975 142.006 28.0824C140.718 27.0691 139.827 25.683 139.335 23.9278L141.835 22.8765C142.006 23.4989 142.241 24.0653 142.545 24.572C142.848 25.0786 143.199 25.5183 143.596 25.8893C144.013 26.2403 144.468 26.5226 144.96 26.7361C145.452 26.9316 145.972 27.0293 146.522 27.0293C147.715 27.0293 148.691 26.718 149.448 26.0938C150.205 25.4496 150.585 24.6009 150.585 23.5478C150.585 22.6702 150.272 21.9192 149.647 21.2968C149.06 20.6924 147.961 20.1061 146.352 19.5415C144.723 18.9372 143.71 18.5282 143.312 18.3111C141.154 17.1819 140.073 15.5136 140.073 13.3096C140.073 11.7697 140.67 10.4542 141.863 9.36128C143.076 8.27015 144.563 7.72368 146.324 7.72368C147.877 7.72368 149.221 8.13263 150.357 8.95234C151.494 9.75214 152.251 10.7564 152.631 11.9652L150.188 13.0183C149.958 12.2343 149.476 11.5538 148.822 11.0875C148.16 10.561 147.346 10.2968 146.38 10.2968C145.357 10.2968 144.496 10.5899 143.797 11.1744C143.094 11.7209 142.742 12.432 142.742 13.3096C142.742 14.0334 143.018 14.6559 143.568 15.1824C144.174 15.7072 145.491 16.3333 147.517 17.0553C149.58 17.7755 151.049 18.6639 151.919 19.7153C152.81 20.7503 153.254 22.0278 153.254 23.5478ZM155.947 8.19053H158.56V14.8025L158.446 16.7929H158.56C158.957 16.089 159.563 15.5045 160.379 15.0377C161.168 14.5808 162.058 14.3386 162.964 14.3338C164.666 14.3338 165.974 14.8405 166.882 15.8538C167.81 16.849 168.274 18.2731 168.274 20.1242V29.1355H165.661V20.6526C165.661 18.0777 164.554 16.7911 162.338 16.7911C161.277 16.7911 160.379 17.2489 159.639 18.1663C158.923 19.0523 158.54 20.1735 158.56 21.3257V29.1355H155.947V8.19053ZM177.593 29.6042C175.548 29.6042 173.863 28.8804 172.536 27.4382C171.211 25.996 170.548 24.1721 170.548 21.9681C170.548 19.784 171.191 17.9709 172.479 16.5287C173.768 15.0648 175.414 14.3338 177.423 14.3338C179.486 14.3338 181.126 15.0268 182.336 16.4111C183.568 17.7755 184.183 19.6972 184.183 22.1726L184.155 22.4657H173.218C173.256 23.8699 173.71 25.0008 174.581 25.8585C175.453 26.7162 176.495 27.1469 177.706 27.1469C179.373 27.1469 180.679 26.2892 181.626 24.572L183.957 25.7427C183.359 26.9207 182.454 27.9034 181.343 28.58C180.243 29.2622 178.994 29.6042 177.593 29.6042ZM173.416 20.2436H181.4C181.372 19.7723 181.252 19.3116 181.047 18.8893C180.842 18.467 180.556 18.0918 180.206 17.7863C179.505 17.1222 178.558 16.7911 177.365 16.7911C176.381 16.7911 175.528 17.1023 174.808 17.7266C174.109 18.3509 173.645 19.1923 173.416 20.2436ZM192.963 29.6042C190.917 29.6042 189.23 28.8804 187.905 27.4382C186.58 25.996 185.916 24.1721 185.916 21.9681C185.916 19.784 186.561 17.9709 187.849 16.5287C189.137 15.0648 190.784 14.3338 192.792 14.3338C194.855 14.3338 196.493 15.0268 197.706 16.4111C198.938 17.7755 199.553 19.6972 199.553 22.1726L199.525 22.4657H188.587C188.626 23.8699 189.079 25.0008 189.951 25.8585C190.822 26.7162 191.863 27.1469 193.075 27.1469C194.743 27.1469 196.049 26.2892 196.996 24.572L199.326 25.7427C198.729 26.9212 197.823 27.904 196.711 28.58C195.613 29.2622 194.363 29.6042 192.963 29.6042ZM188.786 20.2436H196.769C196.742 19.7723 196.622 19.3116 196.417 18.8893C196.212 18.467 195.926 18.0918 195.576 17.7863C194.875 17.1222 193.928 16.7911 192.734 16.7911C191.75 16.7911 190.898 17.1023 190.177 17.7266C189.478 18.3509 189.012 19.1923 188.786 20.2436ZM207.037 29.3689C205.902 29.3689 204.955 29.0071 204.197 28.2869C203.458 27.5649 203.08 26.5606 203.06 25.274V17.2579H200.618V14.8025H203.06V10.4144H205.674V14.8025H209.083V17.2598H205.674V24.3964C205.674 25.3519 205.855 26.0069 206.215 26.3561C206.573 26.6873 206.981 26.8537 207.436 26.8537C207.643 26.8537 207.842 26.8356 208.032 26.7958C208.241 26.7361 208.429 26.6692 208.599 26.5914L209.424 28.989C208.742 29.2423 207.947 29.3689 207.037 29.3689ZM222.5 25.1564C222.5 26.405 221.969 27.4581 220.909 28.3158C219.848 29.1735 218.512 29.6042 216.903 29.6042C215.502 29.6042 214.27 29.2332 213.211 28.4913C212.173 27.7616 211.379 26.7194 210.938 25.5075L213.267 24.4851C213.608 25.3428 214.1 26.0159 214.745 26.5027C215.407 26.9714 216.126 27.2048 216.903 27.2048C217.737 27.2048 218.428 27.0202 218.976 26.6493C219.546 26.2783 219.829 25.8404 219.829 25.332C219.829 24.4163 219.147 23.7432 217.783 23.3144L215.399 22.6991C212.689 21.9988 211.336 20.6526 211.336 18.6639C211.336 17.3575 211.847 16.3134 212.87 15.5335C213.912 14.7337 215.237 14.3338 216.847 14.3338C218.077 14.3338 219.186 14.636 220.17 15.2404C221.175 15.8447 221.874 16.6554 222.273 17.6687L219.943 18.6639C219.675 18.0564 219.214 17.5611 218.635 17.2598C218.031 16.9039 217.344 16.722 216.648 16.7332C215.966 16.7332 215.351 16.9087 214.801 17.2579C214.27 17.6108 214.005 18.0397 214.005 18.5463C214.005 19.366 214.754 19.9505 216.251 20.3015L218.353 20.8571C221.117 21.5591 222.5 22.9923 222.5 25.1564Z" fill="#787879"/>
</g>
<defs>
<clipPath id="clip0_7_9369">
<rect width="222" height="36" fill="white" transform="translate(0.5)"/>
</clipPath>
</defs>
</svg>
