<svg width="181" height="33" viewBox="0 0 181 33" fill="none" xmlns="http://www.w3.org/2000/svg">
<path d="M140.9 7.06705V21.3108C139.398 21.4817 137.96 21.6346 136.584 21.7605V5.85309C136.584 5.35851 136.989 4.95386 137.483 4.95386H138.796C139.956 4.96285 140.9 5.90704 140.9 7.06705ZM133.014 13.5595C133.059 15.6996 132.205 17.633 130.811 19.0268C129.453 20.3846 127.574 21.2299 125.496 21.2299H120.865V22.3899C119.004 22.3449 117.565 22.264 116.549 22.1831V8.09217C116.549 7.01309 118.195 6.40162 119.328 6.23976V6.20379H125.353C129.462 6.19479 132.933 9.44101 133.014 13.5595ZM128.203 13.7034C128.194 11.5902 126.351 9.85466 124.237 9.85466H120.874V17.5611H124.354C125.415 17.5611 126.378 17.1294 127.079 16.437C127.771 15.7356 128.203 14.7734 128.203 13.7034ZM148.301 11.1675H146.988C146.493 11.1675 146.089 11.5722 146.089 12.0668V20.6364C147.114 20.4925 148.166 20.3307 149.236 20.1598C149.632 20.0969 150.018 20.0339 150.405 19.971V13.2717C150.405 12.1117 149.461 11.1675 148.301 11.1675ZM159.505 11.1675H158.192C157.698 11.1675 157.293 11.5722 157.293 12.0668V18.6131C158.813 18.2624 160.252 17.9028 161.609 17.5251V13.2717C161.609 12.1117 160.665 11.1675 159.505 11.1675ZM171.402 10.8258C171.402 10.8258 165.584 11.6261 165.557 16.3471C170.719 14.6745 174.405 12.93 176.842 11.5632C174.459 10.5201 171.402 10.8258 171.402 10.8258Z" fill="#805AD5"/>
<path d="M140.9 21.3109V27.8752C140.9 28.3698 140.496 28.7745 140.001 28.7745H138.688C137.519 28.7745 136.575 27.8303 136.575 26.6613V21.7605C137.96 21.6346 139.398 21.4817 140.9 21.3109ZM116.549 22.1741V26.6613C116.549 27.8303 117.493 28.7745 118.662 28.7745H119.966C120.461 28.7745 120.865 28.3698 120.865 27.8752V22.3899C119.004 22.345 117.556 22.255 116.549 22.1741ZM178.65 20.4746C177.912 19.5843 176.447 18.9729 175.332 18.6222C174.639 18.4063 173.92 18.2715 173.192 18.2175C172.184 18.1366 170.449 17.7949 170.377 16.455C170.278 14.5576 173.578 14.7555 173.578 14.7555C173.578 14.7555 175.08 14.6925 176.339 15.0342C177.598 15.3759 177.912 15.8615 177.912 15.8615C177.912 15.8615 180.556 14.3688 178.182 12.3815C177.787 12.0488 177.328 11.779 176.842 11.5722C174.405 12.93 170.719 14.6835 165.557 16.3561V16.3831C165.557 19.3505 167.841 20.6454 169.55 21.2029C170.269 21.4367 171.024 21.5626 171.78 21.6166C172.769 21.6885 175.278 22.0662 174.864 24.0445C174.352 26.4904 169.774 25.5642 168.578 24.9347C167.859 24.5571 167.329 23.7837 166.564 23.7837C165.953 23.7837 165.656 24.2334 165.512 24.7729C165.224 25.852 165.665 26.994 166.537 27.6864C167.553 28.4867 169.397 29.332 172.58 29.1701C175.305 29.0352 177.418 28.2799 178.506 27.0479C179.729 25.6631 179.738 23.7837 179.738 23.7837C179.738 23.7837 179.936 22.0302 178.65 20.4746ZM157.293 18.6222V24.5841C157.293 25.0157 156.951 25.3754 156.511 25.3844C156.457 25.3844 156.412 25.3844 156.385 25.3844H154.353C153.328 25.3844 152.383 25.0606 151.601 24.5121C150.837 23.9726 150.405 23.0644 150.405 22.1202V19.971C150.018 20.034 149.632 20.0969 149.236 20.1598C148.211 20.3217 147.213 20.4746 146.233 20.6095C146.188 20.6185 146.134 20.6274 146.089 20.6274V23.469C146.089 23.469 146.089 23.478 146.089 23.505C146.089 23.532 146.089 23.5589 146.089 23.6039C146.116 24.0445 146.251 24.8268 146.592 25.6362L146.601 25.6541C147.195 26.931 148.463 28.4148 151.178 29.0622C151.196 29.0622 151.205 29.0712 151.223 29.0712C151.277 29.0892 151.331 29.0982 151.394 29.1072C152.087 29.2421 152.725 29.314 153.229 29.359C153.337 29.368 153.444 29.3769 153.552 29.3769C153.678 29.3769 153.795 29.3859 153.921 29.3859C154.038 29.3859 154.155 29.3859 154.281 29.3859C155.324 29.3859 156.322 29.332 157.284 29.2331C157.869 29.1791 158.426 29.0982 158.984 29.0173C160.494 28.7835 161.609 27.4886 161.609 25.9599V17.5161C160.252 17.9028 158.813 18.2625 157.293 18.6222Z" fill="#6E4EB4"/>
<path d="M113.842 19.2786V31.6789H89.6531V25.5192H101.748C102.782 25.5192 103.78 25.3933 104.733 25.1505C107.997 24.3232 110.74 22.1651 112.341 19.2786H113.842ZM113.734 15.0432H113.842V13.4156C113.842 13.9731 113.806 14.5126 113.734 15.0432Z" fill="#6E4EB4"/>
<path d="M101.748 1.32098C95.0665 1.32098 89.6531 6.73434 89.6531 13.4246V25.5192H83.4934V1.32098H101.748Z" fill="#9779DB"/>
<path d="M104.733 19.2786H112.341C110.74 22.1561 108.006 24.3143 104.733 25.1506V19.2786ZM101.748 1.32098C95.0664 1.32098 89.6531 6.73434 89.6531 13.4246V25.5192H100.498V19.2786H94.0593V15.0432H100.489V8.80257H104.724V15.0432H113.734C113.806 14.5127 113.842 13.9731 113.842 13.4156C113.842 6.73434 108.429 1.32098 101.748 1.32098Z" fill="#805AD5"/>
<path d="M45.8607 13.2717V27.8752C45.8607 28.3698 45.4561 28.7744 44.9615 28.7744H43.6486C42.4796 28.7744 41.5354 27.8302 41.5354 26.6612V12.0668C41.5354 11.5722 41.9401 11.1675 42.4347 11.1675H43.7475C44.9165 11.1675 45.8607 12.1117 45.8607 13.2717ZM37.8486 11.1675H36.5357C35.3667 11.1675 34.1078 12.1117 33.7211 13.2807L29.8544 24.7909L25.9878 13.2807C25.6011 12.1117 24.3332 11.1675 23.1732 11.1675H21.8603C21.3657 11.1675 21.096 11.5722 21.2668 12.0668L26.1676 26.6612C26.5543 27.8302 27.8222 28.7744 28.9822 28.7744H29.4138H30.2861H30.7177C31.8867 28.7744 33.1456 27.8302 33.5323 26.6612L38.4331 12.0668C38.6129 11.5632 38.3432 11.1675 37.8486 11.1675ZM20.6194 27.8752C20.7812 28.3698 20.5204 28.7744 20.0259 28.7744H18.713C17.544 28.7744 16.2851 27.8302 15.8984 26.6612L14.8283 23.505H5.92596L4.85587 26.6612C4.46921 27.8302 3.20129 28.7744 2.04129 28.7744H0.737404C0.242828 28.7744 -0.0269405 28.3698 0.143913 27.8752L6.67232 8.54178C7.05899 7.37278 8.3269 6.42859 9.4869 6.42859H9.91853H10.7908H11.2224C12.3914 6.42859 13.6503 7.37278 14.037 8.54178L20.6194 27.8752ZM13.5694 19.8181L10.3681 10.3762L7.17589 19.8181H13.5694ZM44.1162 4.04563C42.4347 3.77587 40.9959 5.20564 41.2747 6.8872C41.4455 7.90333 42.2638 8.73062 43.2889 8.90147C44.9705 9.18023 46.4093 7.74147 46.1305 6.05991C45.9596 5.03479 45.1413 4.21649 44.1162 4.04563ZM81.0206 19.944C81.0206 25.0336 77.1 29.1611 72.2531 29.1611C67.4063 29.1611 63.4856 25.0336 63.4856 19.944C63.4856 14.8544 67.4063 10.7359 72.2531 10.7359C77.091 10.7269 81.0206 14.8544 81.0206 19.944ZM76.6773 19.944C76.6773 16.9136 74.69 14.4407 72.2531 14.4407C69.8072 14.4407 67.8289 16.9046 67.8289 19.944C67.8289 22.9834 69.8162 25.4473 72.2531 25.4473C74.69 25.4473 76.6773 22.9744 76.6773 19.944ZM60.2934 25.1146C60.1225 25.0426 59.9337 25.0966 59.7988 25.2315C59.583 25.4563 59.0164 25.771 57.5777 25.6541C55.4015 25.4743 55.2127 23.6308 55.2127 23.6308V15.277H59.511C60.2664 15.277 60.8868 14.6655 60.8868 13.9012V12.5074C60.8868 12.1747 60.6171 11.9049 60.2844 11.9049H55.2127V8.92845C55.2127 7.75945 54.2685 6.81526 53.0995 6.81526H51.7956C51.3011 6.81526 50.8964 7.21991 50.8964 7.71449V24.9977C50.8964 24.9977 51.1392 27.6414 54.2056 28.6216C54.3315 28.6575 54.4484 28.6935 54.5743 28.7295C56.1839 29.1611 57.9464 29.1251 59.1693 28.6755C60.2214 28.2799 60.8149 27.5425 60.9588 26.7961C61.1926 25.6991 60.68 25.2764 60.2934 25.1146Z" fill="#333233"/>
</svg>
