<svg width="72" height="68" viewBox="0 0 72 68" fill="none" xmlns="http://www.w3.org/2000/svg">
<path d="M22.2665 67.0573C34.3539 67.0573 44.1526 57.2917 44.1526 45.2453C44.1526 33.1988 34.3539 23.4333 22.2665 23.4333C10.1791 23.4333 0.380371 33.1988 0.380371 45.2453C0.380371 57.2917 10.1791 67.0573 22.2665 67.0573Z" fill="#21E162"/>
<path d="M25.4852 21.3769C29.8536 21.3769 33.395 17.8476 33.395 13.4939C33.395 9.14028 29.8536 5.61096 25.4852 5.61096C21.1168 5.61096 17.5754 9.14028 17.5754 13.4939C17.5754 17.8476 21.1168 21.3769 25.4852 21.3769Z" fill="#945EF1"/>
<path d="M58.4998 63.1909C65.5273 63.1909 71.2242 57.5133 71.2242 50.5096C71.2242 43.5059 65.5273 37.8283 58.4998 37.8283C51.4723 37.8283 45.7754 43.5059 45.7754 50.5096C45.7754 57.5133 51.4723 63.1909 58.4998 63.1909Z" fill="#FA4455"/>
<path d="M53.4346 35.2723C62.9827 35.2723 70.723 27.5582 70.723 18.0424C70.723 8.52667 62.9827 0.812622 53.4346 0.812622C43.8865 0.812622 36.1462 8.52667 36.1462 18.0424C36.1462 27.5582 43.8865 35.2723 53.4346 35.2723Z" fill="#34AAFE"/>
</svg>
